<?xml version="1.0" encoding="utf-8"?>
<!-- Generator: Adobe Illustrator 27.0.0, SVG Export Plug-In . SVG Version: 6.00 Build 0)  -->
<svg version="1.1" id="Layer_1" xmlns="http://www.w3.org/2000/svg" xmlns:xlink="http://www.w3.org/1999/xlink" x="0px" y="0px"
	 viewBox="0 0 1177.3 86.8" style="enable-background:new 0 0 1177.3 86.8;" xml:space="preserve">
<style type="text/css">
	.st0{fill:#F05452;}
	.st1{fill:#FFFFFF;}
</style>
<path class="st0" d="M122.9,43.4c0,30-20.6,43.5-61.4,43.5C20.5,86.8,0,73.4,0,43.4S20.5,0,61.4,0C102.3,0,122.9,13.3,122.9,43.4z
	 M97,43.4c0-18.1-9.4-21.5-35.6-21.5c-26.1,0-35.6,3.4-35.6,21.5c0,18.1,9.4,21.6,35.6,21.6C87.6,65,97,61.4,97,43.4z"/>
<path class="st0" d="M192.4,85.4h-56.3V33h26.1v30.8h30.2c14.5,0,24.9-8,24.9-20.1c0-11.8-10.8-20.5-24.9-20.5h-56.3l16.6-21.9h39.7
	c29.4,0,50.6,17,50.6,41.2C243,67,221.5,85.4,192.4,85.4z"/>
<path class="st0" d="M376.5,43.4c0,30-20.6,43.5-61.4,43.5c-41,0-61.4-13.4-61.4-43.5S274.1,0,315,0C355.9,0,376.5,13.3,376.5,43.4z
	 M350.6,43.4c0-18.1-9.4-21.5-35.6-21.5c-26.1,0-35.6,3.4-35.6,21.5c0,18.1,9.4,21.6,35.6,21.6C341.2,65,350.6,61.4,350.6,43.4z"/>
<path class="st1" d="M515.7,34.9c20.5,0,31.5,7.7,31.5,23c0,17.2-10.4,27.5-36.1,27.5h-78.3l16.7-21.6h63.6c6.2,0,8.9-1.8,8.9-6.2
	c0-4.3-2.8-6-8.9-6h-45.7c-21.6,0-31.5-9.7-31.5-24.1c0-15.8,10.6-26.1,36.1-26.1h73l-16.7,21.9H470c-6,0-8.9,1.5-8.9,5.8
	c0,4.3,2.9,5.9,8.9,5.9H515.7z"/>
<path class="st1" d="M655.7,1.4l-16.8,21.9h-30v62.2h-26V23.2h-39.5l16.8-21.9H655.7z"/>
<path class="st1" d="M774.4,85.4h-34.8l-18.7-22.2h-40v22.2h-26v-43h73.1c8,0,14.3-3.6,14.3-9.4c0-6.5-5.4-9.8-14.3-9.8h-73.1
	l17-21.9h54c19.1,0,43.2,6,43.2,30c0,13.1-8.2,23.9-22,26.6c2.9,2.1,6,5.2,11.8,11.1L774.4,85.4z"/>
<path class="st1" d="M881.4,63.8l-16.7,21.6h-80.9V1.4h97.4l-16.8,21.9h-54.4v10.1h66.6l-15,19.1h-51.6v11.4H881.4z"/>
<path class="st1" d="M921.6,85.4l15.7-21.6h21.1c5,0,10.9,0,15,0.3c-2.3-3-5.8-8.2-8.5-12.2l-15.1-22.2l-39.5,55.8h-30.8l53.9-76
	c3.5-4.9,8.7-9.4,16.8-9.4c7.8,0,12.9,4.1,16.6,9.4l52.5,76H921.6z"/>
<path class="st1" d="M1086.7,32.7c7.4,12.9,10.7,19.2,13.6,25.1c2.8-5.9,6-12.1,13.4-25l13.4-23.9c3-5.4,7.5-8.9,14.3-8.9
	c6.5,0,12.3,3.8,14.6,11.6l21.2,73.9h-25.9l-7.9-29.3c-2.6-9.5-4.4-16.3-5.8-23.1c-2.8,5.9-5.9,12.3-11.7,23.2l-11.3,21.1
	c-4.4,8.3-8.7,9.4-15,9.4c-6.3,0-10.6-1.1-15-9.4l-11.3-21.2c-6.2-11.6-9.2-17.5-11.8-23.1c-1.3,6.7-3.1,13.7-5.7,23.1l-7.9,29.3
	h-25.5l21.7-73.9c2.3-7.8,8.2-11.6,14.7-11.6c6.7,0,11.2,3.4,14.2,8.9L1086.7,32.7z"/>
</svg>
